<svg width="7192" height="2113" xmlns="http://www.w3.org/2000/svg" xmlns:xlink="http://www.w3.org/1999/xlink" xml:space="preserve" overflow="hidden"><defs><clipPath id="clip0"><rect x="144" y="1267" width="7192" height="2113"/></clipPath></defs><g clip-path="url(#clip0)" transform="translate(-144 -1267)"><path d="M151 1504.01C151 1376.98 253.98 1274 381.011 1274L7098.99 1274C7226.02 1274 7329 1376.98 7329 1504.01L7329 3142.99C7329 3270.02 7226.02 3373 7098.99 3373L381.011 3373C253.98 3373 151 3270.02 151 3142.99Z" stroke="#5E8941" stroke-width="13.75" stroke-miterlimit="8" stroke-dasharray="55 41.25 13.75 41.25" fill="#FFFFFF" fill-rule="evenodd"/><rect x="284" y="1650" width="501" height="119" fill="#A9D18E"/><rect x="840" y="1650" width="501" height="119" fill="#C7E1B5"/><rect x="1396" y="1650" width="501" height="119" fill="#E4F1DC"/><rect x="281" y="2238" width="501" height="119" fill="#96B383"/><rect x="837" y="2238" width="501" height="119" fill="#A9D18E"/><rect x="1393" y="2238" width="501" height="119" fill="#D8EACB"/><rect x="837" y="2915" width="501" height="119" fill="#5E8941"/><rect x="2180" y="1650" width="501" height="119" fill="#A9D18E"/><rect x="2736" y="1650" width="501" height="119" fill="#C7E1B5"/><rect x="3292" y="1650" width="501" height="119" fill="#E4F1DC"/><rect x="2235" y="2252" width="501" height="119" fill="#A9D18E"/><rect x="2736" y="2253" width="501" height="119" fill="#C7E1B5"/><rect x="3237" y="2253" width="501" height="119" fill="#E4F1DC"/><rect x="2736" y="2915" width="501" height="119" fill="#5E8941"/><rect x="4040" y="1605" width="501" height="119" fill="#A9D18E"/><rect x="4719" y="1605" width="501" height="119" fill="#C7E1B5"/><rect x="5398" y="1605" width="501" height="119" fill="#E4F1DC"/><rect x="4040" y="2149" width="501" height="120" stroke="#C00000" stroke-width="13.75" stroke-miterlimit="8" fill="#A9D18E"/><rect x="4719" y="2147" width="501" height="119" stroke="#C00000" stroke-width="13.75" stroke-miterlimit="8" fill="#C7E1B5"/><rect x="5398" y="2149" width="501" height="120" stroke="#C00000" stroke-width="13.75" stroke-miterlimit="8" fill="#E4F1DC"/><rect x="4218" y="2429" width="501" height="119" stroke="#C00000" stroke-width="13.75" stroke-miterlimit="8" fill="#A9D18E"/><rect x="4719" y="2429" width="501" height="119" stroke="#C00000" stroke-width="13.75" stroke-miterlimit="8" fill="#C7E1B5"/><rect x="5220" y="2429" width="501" height="119" stroke="#C00000" stroke-width="13.75" stroke-miterlimit="8" fill="#E4F1DC"/><rect x="4717" y="2981" width="501" height="120" fill="#5E8941"/><path d="M1.14581-0.00740724 4.02988 446.123 1.73826 446.138-1.14581 0.00740724ZM16.6042 441.458 3.03222 469.047-10.8953 441.636Z" transform="matrix(-1 0 0 1 534.032 1769)"/><path d="M1.14581-0.00740724 4.02988 446.123 1.73826 446.138-1.14581 0.00740724ZM16.6042 441.458 3.03222 469.047-10.8953 441.636Z" transform="matrix(-1 0 0 1 1091.03 1769)"/><path d="M1.14581-0.00740724 4.02988 446.123 1.73826 446.138-1.14581 0.00740724ZM16.6042 441.458 3.03222 469.047-10.8953 441.636Z" transform="matrix(-1 0 0 1 1647.03 1769)"/><path d="M1.14583-2.86797e-06 1.14614 121.27-1.14553 121.27-1.14583 2.86797e-06ZM13.7503 116.686 0.000360892 144.186-13.7497 116.686Z" transform="matrix(-1 0 0 1 1088 2357)"/><path d="M1010.5 2579.5C1010.5 2536.42 1045.42 2501.5 1088.5 2501.5 1131.58 2501.5 1166.5 2536.42 1166.5 2579.5 1166.5 2622.58 1131.58 2657.5 1088.5 2657.5 1045.42 2657.5 1010.5 2622.58 1010.5 2579.5Z" fill="#FFFFFF" fill-rule="evenodd"/><path d="M1088.5 2501.5 1088.5 2657.5M1010.5 2579.5 1166.5 2579.5" stroke="#000000" stroke-width="4.58333" stroke-miterlimit="8" fill="none" fill-rule="evenodd"/><path d="M1010.5 2579.5C1010.5 2536.42 1045.42 2501.5 1088.5 2501.5 1131.58 2501.5 1166.5 2536.42 1166.5 2579.5 1166.5 2622.58 1131.58 2657.5 1088.5 2657.5 1045.42 2657.5 1010.5 2622.58 1010.5 2579.5Z" stroke="#000000" stroke-width="4.58333" stroke-miterlimit="8" fill="none" fill-rule="evenodd"/><path d="M0-1.14583 223.285-1.14583 223.285 455.241 220.993 455.241 220.993 0 222.139 1.14583 0 1.14583ZM235.889 450.658 222.139 478.158 208.389 450.658Z" transform="matrix(1.83697e-16 1 1 -1.83697e-16 531 2357)"/><path d="M1645.3 2357 1645.3 2580.29 1188.92 2580.29 1188.92 2577.99 1644.16 2577.99 1643.01 2579.14 1643.01 2357ZM1193.5 2592.89 1166 2579.14 1193.5 2565.39Z"/><path d="M1089.15 2657 1089.15 2891.36 1086.85 2891.36 1086.85 2657ZM1101.75 2886.78 1088 2914.28 1074.25 2886.78Z"/><path d="M2431.14 1768.87 2483.54 2228.92 2481.27 2229.18 2428.86 1769.13ZM2495.55 2222.94 2485 2251.82 2468.23 2226.05Z"/><path d="M1.13851-0.129353 53.551 461.181 51.274 461.44-1.13851 0.129353ZM65.5573 455.205 54.9996 484.081 38.2331 458.309Z" transform="matrix(-1 0 0 1 3542 1769)"/><path d="M2987.15 1769 2987.15 2230.16 2984.85 2230.16 2984.85 1769ZM2999.75 2225.58 2986 2253.08 2972.25 2225.58Z"/><path d="M1.14583-5.05607e-06 1.14645 140.658-1.14521 140.658-1.14583 5.05607e-06ZM13.7506 136.075 0.000721785 163.575-13.7494 136.075Z" transform="matrix(-1 0 0 1 2986 2372)"/><path d="M2736.5 2562.5C2736.5 2548.14 2748.14 2536.5 2762.5 2536.5L3211.5 2536.5C3225.86 2536.5 3237.5 2548.14 3237.5 2562.5L3237.5 2666.5C3237.5 2680.86 3225.86 2692.5 3211.5 2692.5L2762.5 2692.5C2748.14 2692.5 2736.5 2680.86 2736.5 2666.5Z" stroke="#548235" stroke-width="4.58333" stroke-miterlimit="8" fill="none" fill-rule="evenodd"/><text font-family="Times New Roman,Times New Roman_MSFontService,sans-serif" font-weight="400" font-size="83" transform="matrix(1 0 0 1 2901.39 2644)">MLP</text><path d="M2987.15 2692 2987.15 2891.94 2984.85 2891.94 2984.85 2692ZM2999.75 2887.35 2986 2914.85 2972.25 2887.35Z"/><path d="M4291.15 1724 4291.15 1862.18 4288.85 1862.18 4288.85 1724ZM4303.75 1857.6 4290 1885.1 4276.25 1857.6Z"/><path d="M3980.5 1906.33C3980.5 1894.83 3989.83 1885.5 4001.33 1885.5L4580.67 1885.5C4592.17 1885.5 4601.5 1894.83 4601.5 1906.33L4601.5 1989.67C4601.5 2001.17 4592.17 2010.5 4580.67 2010.5L4001.33 2010.5C3989.83 2010.5 3980.5 2001.17 3980.5 1989.67Z" stroke="#548235" stroke-width="4.58333" stroke-miterlimit="8" fill="none" fill-rule="evenodd"/><text font-family="Times New Roman,Times New Roman_MSFontService,sans-serif" font-weight="400" font-size="83" transform="matrix(1 0 0 1 4030.23 1978)">Element weight</text><path d="M1.14574-0.0143582 2.85901 136.699 0.567519 136.728-1.14574 0.0143582ZM15.4048 131.958 2.00043 159.628-12.0931 132.303Z" transform="matrix(-1 0 0 1 4969 1724)"/><path d="M1.14583-0.000479248 1.20301 136.711-1.08865 136.712-1.14583 0.000479248ZM13.8053 132.123 0.0667651 159.628-13.6947 132.134Z" transform="matrix(-1 0 0 1 5648.07 1724)"/><path d="M4291.15 2010 4291.15 2126.07 4288.85 2126.07 4288.85 2010ZM4303.75 2121.48 4290 2148.98 4276.25 2121.48Z"/><path d="M4968.15 2008.98 4969.81 2124.21 4967.52 2124.24 4965.85 2009.02ZM4982.35 2119.44 4969 2147.14 4954.85 2119.84Z"/><path d="M5649.15 2009 5649.2 2126.54 5646.91 2126.54 5646.85 2009ZM5661.8 2121.95 5648.07 2149.45 5634.3 2121.96Z"/><path d="M4290.77 2268.15 4451.7 2413.39 4450.17 2415.09 4289.23 2269.85ZM4456.74 2400.97 4467.95 2429.6 4438.32 2421.38Z"/><path d="M4970.15 2266 4970.15 2406 4967.85 2406 4967.85 2266ZM4982.75 2401.41 4969 2428.91 4955.25 2401.41Z"/><path d="M0.7677-0.85063 161.702 144.394 160.166 146.095-0.7677 0.85063ZM166.744 131.966 177.947 160.598 148.319 152.381Z" transform="matrix(-1 0 0 1 5648.95 2269)"/><path d="M1.14576-0.0131614 2.8826 151.186 0.59108 151.212-1.14576 0.0131614ZM15.4333 146.458 2.00007 174.114-12.0649 146.774Z" transform="matrix(-1 0 0 1 4969 2548)"/><path d="M4717.5 2744.33C4717.5 2732.83 4726.83 2723.5 4738.33 2723.5L5197.67 2723.5C5209.17 2723.5 5218.5 2732.83 5218.5 2744.33L5218.5 2827.67C5218.5 2839.17 5209.17 2848.5 5197.67 2848.5L4738.33 2848.5C4726.83 2848.5 4717.5 2839.17 4717.5 2827.67Z" stroke="#548235" stroke-width="4.58333" stroke-miterlimit="8" fill="none" fill-rule="evenodd"/><text font-family="Times New Roman,Times New Roman_MSFontService,sans-serif" font-weight="400" font-size="83" transform="matrix(1 0 0 1 4882.6 2816)">MLP</text><path d="M4968.15 2848 4968.15 2958.44 4965.85 2958.44 4965.85 2848ZM4980.75 2953.86 4967 2981.36 4953.25 2953.86Z"/><rect x="6137" y="1590" width="501" height="119" fill="#A9D18E"/><path d="M6312.74 1621.45 6314.97 1621.45C6314.81 1624.04 6314.73 1627.64 6314.73 1632.23L6314.73 1666.84C6314.73 1668.41 6314.82 1669.59 6314.99 1670.38 6315.17 1671.18 6315.48 1671.83 6315.92 1672.33 6316.37 1672.83 6317.01 1673.22 6317.85 1673.51 6318.69 1673.79 6319.74 1674.01 6321.01 1674.15 6322.28 1674.3 6323.95 1674.4 6326.04 1674.46L6326.04 1677.42 6296.09 1677.42 6296.09 1674.46C6299.08 1674.32 6301.23 1674.14 6302.51 1673.91 6303.79 1673.68 6304.77 1673.34 6305.45 1672.88 6306.12 1672.42 6306.62 1671.77 6306.93 1670.93 6307.24 1670.09 6307.39 1668.73 6307.39 1666.84L6307.39 1633.97C6307.39 1632.89 6307.2 1632.1 6306.83 1631.6 6306.45 1631.1 6305.89 1630.85 6305.16 1630.85 6304.3 1630.85 6303.07 1631.3 6301.48 1632.19 6299.88 1633.08 6297.91 1634.31 6295.56 1635.88L6293.78 1632.76Z" fill-rule="evenodd"/><text fill="#000000" fill-opacity="0" font-family="Arial,Arial_MSFontService,sans-serif" font-size="55.9683" x="6293.78" y="1670.42">1</text><path d="M6368.11 1638.39 6373.46 1638.39 6372.29 1651.07 6382.7 1643.74 6385.34 1648.28 6373.79 1653.67 6385.34 1659.1 6382.7 1663.6 6372.29 1656.26 6373.46 1668.95 6368.11 1668.95 6369.33 1656.26 6358.87 1663.6 6356.2 1659.1 6367.79 1653.67 6356.2 1648.28 6358.87 1643.74 6369.33 1651.07Z" fill-rule="evenodd"/><text fill="#000000" fill-opacity="0" font-family="Arial,Arial_MSFontService,sans-serif" font-size="30.5576" x="6356.2" y="1665.13">∗</text><path d="M6437.58 1625.62C6436.39 1625.62 6435.1 1625.66 6433.73 1625.74L6423.23 1673.69C6424.01 1673.77 6425.51 1673.81 6427.73 1673.81 6432.1 1673.81 6435.82 1673.05 6438.87 1671.52 6441.93 1669.99 6444.56 1667.6 6446.77 1664.35 6448.99 1661.09 6450.62 1657.66 6451.68 1654.05 6452.73 1650.45 6453.26 1646.64 6453.26 1642.64 6453.26 1637 6451.94 1632.75 6449.31 1629.9 6446.67 1627.05 6442.76 1625.62 6437.58 1625.62ZM6422.09 1622.1 6437.45 1622.1C6441.53 1622.1 6444.84 1622.41 6447.38 1623.03 6449.92 1623.65 6452.29 1624.77 6454.5 1626.39 6456.7 1628.01 6458.35 1630.17 6459.46 1632.86 6460.57 1635.54 6461.12 1638.73 6461.12 1642.4 6461.12 1646.05 6460.7 1649.53 6459.87 1652.86 6459.03 1656.18 6457.83 1659.24 6456.26 1662.04 6454.69 1664.83 6452.81 1667.26 6450.62 1669.33 6448.44 1671.4 6446.32 1672.99 6444.26 1674.09 6442.21 1675.2 6439.91 1676.03 6437.37 1676.59 6434.83 1677.14 6431.87 1677.42 6428.5 1677.42L6411.48 1677.42 6411.92 1675.43C6412.95 1675.27 6413.72 1675 6414.23 1674.64 6414.74 1674.28 6415.18 1673.77 6415.53 1673.12 6415.88 1672.47 6416.2 1671.68 6416.5 1670.75 6416.8 1669.82 6417.24 1668.01 6417.84 1665.34L6424.73 1634.13C6425.32 1631.43 6425.62 1629.26 6425.62 1627.61 6425.62 1626.34 6425.3 1625.45 6424.67 1624.95 6424.03 1624.45 6423.03 1624.16 6421.65 1624.08Z" fill-rule="evenodd"/><text fill="#000000" fill-opacity="0" font-family="Arial,Arial_MSFontService,sans-serif" font-size="55.3198" x="6411.48" y="1670.5">𝐷</text><path d="M6576.5 1813.5C6576.5 1801.9 6585.9 1792.5 6597.5 1792.5L7056.5 1792.5C7068.1 1792.5 7077.5 1801.9 7077.5 1813.5L7077.5 1897.5C7077.5 1909.1 7068.1 1918.5 7056.5 1918.5L6597.5 1918.5C6585.9 1918.5 6576.5 1909.1 6576.5 1897.5Z" stroke="#548235" stroke-width="4.58333" stroke-miterlimit="8" fill="none" fill-rule="evenodd"/><path d="M6625.33 1827.3 6661.88 1827.3 6659.09 1839.75 6655.2 1839.75C6655.09 1837.66 6654.92 1836.02 6654.69 1834.82 6654.46 1833.62 6654.13 1832.75 6653.72 1832.23 6653.3 1831.7 6652.79 1831.34 6652.2 1831.15 6651.6 1830.96 6650.71 1830.87 6649.52 1830.87L6637.04 1830.87 6632.22 1852.92 6639.79 1852.92C6640.98 1852.92 6641.97 1852.75 6642.75 1852.43 6643.54 1852.11 6644.27 1851.52 6644.94 1850.67 6645.62 1849.82 6646.46 1848.36 6647.45 1846.31L6651.14 1846.31 6647.21 1863.41 6643.65 1863.41C6643.65 1860.68 6643.56 1858.98 6643.38 1858.29 6643.21 1857.6 6642.87 1857.12 6642.37 1856.87 6641.87 1856.61 6640.88 1856.48 6639.39 1856.48L6631.45 1856.48 6628.24 1870.83C6627.68 1873.37 6627.39 1875.48 6627.39 1877.15 6627.39 1877.99 6627.53 1878.64 6627.8 1879.12 6628.07 1879.59 6628.47 1879.93 6629.01 1880.15 6629.56 1880.37 6630.49 1880.53 6631.81 1880.64L6631.37 1882.62 6614.71 1882.62 6615.15 1880.64C6616.18 1880.48 6616.95 1880.21 6617.46 1879.85 6617.98 1879.48 6618.41 1878.98 6618.76 1878.33 6619.11 1877.68 6619.44 1876.89 6619.73 1875.96 6620.03 1875.02 6620.48 1873.22 6621.07 1870.55L6627.96 1839.34C6628.56 1836.64 6628.85 1834.5 6628.85 1832.94 6628.85 1831.61 6628.54 1830.69 6627.92 1830.18 6627.3 1829.67 6626.29 1829.37 6624.88 1829.29ZM6696.89 1826.65C6699.35 1826.65 6701.62 1826.8 6703.72 1827.1 6705.81 1827.4 6708.14 1827.94 6710.71 1828.72L6708.28 1839.7 6704.38 1839.7C6704.17 1836.38 6703.45 1833.98 6702.22 1832.51 6700.99 1831.04 6699.01 1830.3 6696.28 1830.3 6692.55 1830.3 6689.09 1832.17 6685.88 1835.9 6682.68 1839.62 6680.15 1844.55 6678.29 1850.67 6676.42 1856.79 6675.49 1862.47 6675.49 1867.71 6675.49 1871.82 6676.22 1874.84 6677.68 1876.79 6679.14 1878.73 6681.38 1879.71 6684.4 1879.71 6686.43 1879.71 6688.2 1879.4 6689.71 1878.79 6691.23 1878.19 6692.65 1877.16 6693.97 1875.71 6695.29 1874.27 6696.6 1872.25 6697.9 1869.65L6701.79 1869.65 6699.32 1881.16C6694.27 1882.57 6688.97 1883.27 6683.43 1883.27 6678.35 1883.27 6674.49 1881.81 6671.84 1878.89 6669.19 1875.98 6667.87 1871.71 6667.87 1866.09 6667.87 1862.12 6668.58 1857.54 6670 1852.35 6671.42 1847.16 6673.42 1842.61 6676.02 1838.69 6678.61 1834.77 6681.68 1831.79 6685.22 1829.73 6688.75 1827.68 6692.65 1826.65 6696.89 1826.65Z" fill-rule="evenodd"/><text fill="#000000" fill-opacity="0" font-family="Arial,Arial_MSFontService,sans-serif" font-size="56.6167" x="6614.71" y="1876.19">𝐹𝐶</text><path d="M6747.52 1824.06 6748.61 1827.18C6742.29 1829.26 6737.61 1833.32 6734.57 1839.36 6731.53 1845.4 6730.01 1852.98 6730.01 1862.12 6730.01 1871.57 6731.53 1879.37 6734.57 1885.5 6737.61 1891.63 6742.25 1895.74 6748.49 1897.82L6747.52 1900.94C6739.6 1898.86 6733.54 1894.38 6729.32 1887.51 6725.11 1880.63 6723 1872.3 6723 1862.52 6723 1852.77 6725.12 1844.44 6729.34 1837.54 6733.57 1830.63 6739.63 1826.14 6747.52 1824.06Z" fill-rule="evenodd"/><text fill="#000000" fill-opacity="0" font-family="Arial,Arial_MSFontService,sans-serif" font-size="76.8804" x="6723" y="1891.33">(</text><path d="M6778.49 1830.83C6777.3 1830.83 6776.02 1830.87 6774.64 1830.95L6764.14 1878.89C6764.93 1878.98 6766.43 1879.02 6768.64 1879.02 6773.02 1879.02 6776.73 1878.25 6779.79 1876.73 6782.84 1875.2 6785.48 1872.81 6787.69 1869.55 6789.91 1866.3 6791.54 1862.87 6792.59 1859.26 6793.65 1855.65 6794.18 1851.85 6794.18 1847.85 6794.18 1842.2 6792.86 1837.96 6790.22 1835.1 6787.59 1832.25 6783.68 1830.83 6778.49 1830.83ZM6763.01 1827.3 6778.37 1827.3C6782.45 1827.3 6785.76 1827.61 6788.3 1828.24 6790.84 1828.86 6793.21 1829.98 6795.41 1831.6 6797.61 1833.22 6799.27 1835.38 6800.38 1838.06 6801.48 1840.75 6802.04 1843.93 6802.04 1847.61 6802.04 1851.26 6801.62 1854.74 6800.78 1858.06 6799.94 1861.39 6798.74 1864.45 6797.17 1867.24 6795.61 1870.04 6793.73 1872.47 6791.54 1874.54 6789.35 1876.6 6787.23 1878.19 6785.18 1879.3 6783.12 1880.41 6780.83 1881.24 6778.29 1881.79 6775.75 1882.35 6772.79 1882.62 6769.41 1882.62L6752.39 1882.62 6752.84 1880.64C6753.86 1880.48 6754.63 1880.21 6755.15 1879.85 6755.66 1879.48 6756.09 1878.98 6756.44 1878.33 6756.8 1877.68 6757.12 1876.89 6757.42 1875.96 6757.71 1875.02 6758.16 1873.22 6758.75 1870.55L6765.64 1839.34C6766.24 1836.64 6766.54 1834.46 6766.54 1832.82 6766.54 1831.55 6766.22 1830.66 6765.58 1830.16 6764.95 1829.66 6763.94 1829.37 6762.56 1829.29Z" fill-rule="evenodd"/><text fill="#000000" fill-opacity="0" font-family="Arial,Arial_MSFontService,sans-serif" font-size="55.3198" x="6752.39" y="1875.71">𝐷</text><path d="M6815.21 1873.22 6822.3 1873.22C6822.68 1875.11 6822.87 1876.98 6822.87 1878.81 6822.87 1880.7 6822.55 1882.43 6821.9 1884 6821.25 1885.57 6820.22 1887.13 6818.8 1888.68 6817.38 1890.24 6815.43 1891.94 6812.94 1893.81L6810.75 1891.34C6812.13 1890.04 6813.13 1888.87 6813.75 1887.83 6814.37 1886.79 6814.82 1885.61 6815.09 1884.28 6815.36 1882.96 6815.49 1881.3 6815.49 1879.3 6815.49 1877.25 6815.4 1875.22 6815.21 1873.22Z" fill-rule="evenodd"/><text fill="#000000" fill-opacity="0" font-family="Arial,Arial_MSFontService,sans-serif" font-size="20.5879" x="6810.75" y="1891.24">,</text><path d="M6869.13 1830.83C6867.94 1830.83 6866.65 1830.87 6865.28 1830.95L6854.78 1878.89C6855.56 1878.98 6857.06 1879.02 6859.28 1879.02 6863.66 1879.02 6867.37 1878.25 6870.42 1876.73 6873.48 1875.2 6876.11 1872.81 6878.33 1869.55 6880.54 1866.3 6882.18 1862.87 6883.23 1859.26 6884.28 1855.65 6884.81 1851.85 6884.81 1847.85 6884.81 1842.2 6883.49 1837.96 6880.86 1835.1 6878.23 1832.25 6874.31 1830.83 6869.13 1830.83ZM6853.65 1827.3 6869.01 1827.3C6873.08 1827.3 6876.4 1827.61 6878.93 1828.24 6881.47 1828.86 6883.85 1829.98 6886.05 1831.6 6888.25 1833.22 6889.9 1835.38 6891.01 1838.06 6892.12 1840.75 6892.67 1843.93 6892.67 1847.61 6892.67 1851.26 6892.25 1854.74 6891.42 1858.06 6890.58 1861.39 6889.38 1864.45 6887.81 1867.24 6886.24 1870.04 6884.37 1872.47 6882.18 1874.54 6879.99 1876.6 6877.87 1878.19 6875.81 1879.3 6873.76 1880.41 6871.46 1881.24 6868.92 1881.79 6866.38 1882.35 6863.43 1882.62 6860.05 1882.62L6843.03 1882.62 6843.47 1880.64C6844.5 1880.48 6845.27 1880.21 6845.78 1879.85 6846.3 1879.48 6846.73 1878.98 6847.08 1878.33 6847.43 1877.68 6847.76 1876.89 6848.05 1875.96 6848.35 1875.02 6848.8 1873.22 6849.39 1870.55L6856.28 1839.34C6856.87 1836.64 6857.17 1834.46 6857.17 1832.82 6857.17 1831.55 6856.85 1830.66 6856.22 1830.16 6855.58 1829.66 6854.58 1829.37 6853.2 1829.29Z" fill-rule="evenodd"/><text fill="#000000" fill-opacity="0" font-family="Arial,Arial_MSFontService,sans-serif" font-size="55.3198" x="6843.03" y="1875.71">𝐷</text><path d="M6932.27 1824.63 6938.55 1824.63 6909.29 1900.05 6902.93 1900.05Z" fill-rule="evenodd"/><text fill="#000000" fill-opacity="0" font-family="Arial,Arial_MSFontService,sans-serif" font-size="75.4214" x="6902.93" y="1890.62">/</text><path d="M6966.75 1836.18 6950.9 1861.35 6950.9 1861.91 6966.75 1861.91 6966.75 1851.82C6966.75 1849.28 6966.79 1846.44 6966.87 1843.29 6966.95 1840.14 6967.04 1837.77 6967.15 1836.18ZM6967.92 1827.02 6973.72 1827.02 6973.72 1861.91 6974.57 1861.91C6976.13 1861.91 6977.26 1861.8 6977.93 1861.57 6978.61 1861.34 6979.17 1860.93 6979.61 1860.35 6980.06 1859.77 6980.47 1858.82 6980.85 1857.5L6983.93 1857.5 6983.44 1865.84 6973.72 1865.84 6973.72 1872.49C6973.72 1874.3 6973.78 1875.63 6973.9 1876.46 6974.02 1877.3 6974.22 1877.96 6974.51 1878.45 6974.79 1878.94 6975.21 1879.34 6975.76 1879.66 6976.32 1879.99 6977.22 1880.31 6978.46 1880.64L6978.46 1882.62 6962 1882.62 6962 1880.64C6963.68 1880.21 6964.8 1879.73 6965.37 1879.2 6965.94 1878.67 6966.31 1877.92 6966.48 1876.95 6966.66 1875.98 6966.75 1874.49 6966.75 1872.49L6966.75 1865.84 6944.21 1865.84 6944.21 1862.81Z" fill-rule="evenodd"/><text fill="#000000" fill-opacity="0" font-family="Arial,Arial_MSFontService,sans-serif" font-size="55.6035" x="6944.21" y="1875.67">4</text><path d="M6989.56 1824.06C6997.45 1826.14 7003.51 1830.63 7007.74 1837.54 7011.96 1844.44 7014.08 1852.77 7014.08 1862.52 7014.08 1872.3 7011.97 1880.63 7007.76 1887.51 7003.54 1894.38 6997.48 1898.86 6989.56 1900.94L6988.59 1897.82C6994.83 1895.74 6999.47 1891.63 7002.51 1885.5 7005.55 1879.37 7007.07 1871.57 7007.07 1862.12 7007.07 1852.98 7005.55 1845.4 7002.53 1839.36 6999.5 1833.32 6994.81 1829.26 6988.47 1827.18Z" fill-rule="evenodd"/><text fill="#000000" fill-opacity="0" font-family="Arial,Arial_MSFontService,sans-serif" font-size="76.8804" x="6988.47" y="1891.33">)</text><path d="M6576.5 2211.33C6576.5 2199.83 6585.83 2190.5 6597.33 2190.5L7056.67 2190.5C7068.17 2190.5 7077.5 2199.83 7077.5 2211.33L7077.5 2294.67C7077.5 2306.17 7068.17 2315.5 7056.67 2315.5L6597.33 2315.5C6585.83 2315.5 6576.5 2306.17 6576.5 2294.67Z" stroke="#548235" stroke-width="4.58333" stroke-miterlimit="8" fill="none" fill-rule="evenodd"/><path d="M6877.37 2244.01C6874.56 2244.01 6872.11 2245.18 6870.01 2247.53 6867.92 2249.88 6866.27 2253.25 6865.07 2257.62 6863.87 2262 6863.27 2265.77 6863.27 2268.93 6863.27 2271.9 6863.88 2274.1 6865.11 2275.52 6866.34 2276.93 6868.2 2277.64 6870.68 2277.64 6873.33 2277.64 6875.68 2276.45 6877.73 2274.08 6879.79 2271.7 6881.41 2268.37 6882.6 2264.09 6883.79 2259.8 6884.38 2256.04 6884.38 2252.8 6884.38 2249.88 6883.81 2247.69 6882.68 2246.21 6881.54 2244.74 6879.77 2244.01 6877.37 2244.01ZM6947.61 2243.92C6944.86 2243.92 6942.38 2245.04 6940.2 2247.27 6938.01 2249.5 6936.28 2252.5 6935.03 2256.28 6933.77 2260.07 6933.14 2263.84 6933.14 2267.59 6933.14 2270.4 6933.53 2272.5 6934.3 2273.89 6935.07 2275.29 6936.36 2275.98 6938.17 2275.98 6939.01 2275.98 6939.86 2275.8 6940.72 2275.43 6941.59 2275.07 6942.48 2274.48 6943.42 2273.67 6944.35 2272.86 6945.27 2271.87 6946.17 2270.71 6947.08 2269.55 6947.91 2268.38 6948.67 2267.21 6949.42 2266.03 6950.12 2264.64 6950.77 2263.03 6951.42 2261.43 6951.98 2259.49 6952.43 2257.22L6952.8 2255.47C6953.2 2253.53 6953.41 2251.69 6953.41 2249.96 6953.41 2247.86 6952.96 2246.32 6952.07 2245.36 6951.18 2244.4 6949.69 2243.92 6947.61 2243.92ZM6762.72 2243.92C6759.96 2243.92 6757.49 2245.04 6755.3 2247.27 6753.11 2249.5 6751.39 2252.5 6750.13 2256.28 6748.88 2260.07 6748.25 2263.84 6748.25 2267.59 6748.25 2270.4 6748.66 2272.5 6749.47 2273.89 6750.28 2275.29 6751.55 2275.98 6753.28 2275.98 6754.65 2275.98 6756.02 2275.51 6757.39 2274.56 6758.75 2273.62 6760.21 2272.12 6761.77 2270.06 6763.32 2268.01 6764.53 2266.05 6765.39 2264.19 6766.26 2262.32 6766.99 2260 6767.6 2257.22 6768.21 2254.43 6768.51 2252.02 6768.51 2249.96 6768.51 2247.86 6768.07 2246.32 6767.18 2245.36 6766.28 2244.4 6764.8 2243.92 6762.72 2243.92ZM6912.53 2241.05 6914.92 2241.05 6909.09 2267.07C6908.49 2269.71 6908.2 2271.71 6908.2 2273.06 6908.2 2274.14 6908.37 2274.93 6908.72 2275.41 6909.08 2275.9 6909.63 2276.14 6910.39 2276.14 6911.2 2276.14 6912.06 2275.81 6912.98 2275.15 6913.9 2274.49 6915.19 2273.23 6916.87 2271.36L6919.18 2273.63C6916.53 2276.41 6914.38 2278.3 6912.74 2279.3 6911.09 2280.3 6909.24 2280.8 6907.18 2280.8 6905.43 2280.8 6904.02 2280.16 6902.97 2278.88 6901.92 2277.6 6901.39 2275.95 6901.39 2273.95 6901.39 2271.9 6901.77 2269.28 6902.52 2266.09L6905.56 2252.84C6906.18 2250.14 6906.5 2248.11 6906.5 2246.76 6906.5 2245.55 6906.2 2244.72 6905.62 2244.29 6905.04 2243.86 6903.9 2243.61 6902.2 2243.56L6902.65 2241.41ZM6722.53 2241.05 6724.92 2241.05 6719.09 2267.07C6718.49 2269.71 6718.2 2271.71 6718.2 2273.06 6718.2 2274.14 6718.37 2274.93 6718.72 2275.41 6719.08 2275.9 6719.63 2276.14 6720.39 2276.14 6721.2 2276.14 6722.06 2275.81 6722.98 2275.15 6723.9 2274.49 6725.19 2273.23 6726.87 2271.36L6729.18 2273.63C6726.53 2276.41 6724.38 2278.3 6722.74 2279.3 6721.09 2280.3 6719.24 2280.8 6717.18 2280.8 6715.43 2280.8 6714.02 2280.16 6712.97 2278.88 6711.92 2277.6 6711.39 2275.95 6711.39 2273.95 6711.39 2271.9 6711.77 2269.28 6712.52 2266.09L6715.56 2252.84C6716.18 2250.14 6716.5 2248.11 6716.5 2246.76 6716.5 2245.55 6716.2 2244.72 6715.62 2244.29 6715.04 2243.86 6713.9 2243.61 6712.2 2243.56L6712.65 2241.41ZM6878.18 2240.76C6882.5 2240.76 6885.8 2241.95 6888.07 2244.31 6890.34 2246.67 6891.47 2250.06 6891.47 2254.46 6891.47 2257.6 6890.92 2260.95 6889.83 2264.51 6888.74 2268.08 6887.24 2271.08 6885.33 2273.51 6883.43 2275.94 6881.15 2277.77 6878.5 2279 6875.86 2280.23 6872.82 2280.84 6869.38 2280.84 6865.2 2280.84 6861.95 2279.67 6859.64 2277.32 6857.33 2274.97 6856.17 2271.59 6856.17 2267.19 6856.17 2265.03 6856.5 2262.53 6857.15 2259.69 6857.98 2255.85 6859.39 2252.5 6861.36 2249.64 6863.33 2246.77 6865.76 2244.58 6868.66 2243.05 6871.55 2241.53 6874.72 2240.76 6878.18 2240.76ZM6794.48 2240.72C6796.18 2240.72 6797.53 2241.28 6798.51 2242.4 6799.5 2243.53 6799.99 2244.99 6799.99 2246.8 6799.99 2248.29 6799.68 2249.87 6799.06 2251.54L6799.55 2251.71C6802.03 2248 6804.5 2245.25 6806.96 2243.46 6809.42 2241.66 6811.91 2240.76 6814.42 2240.76 6817.01 2240.76 6818.99 2241.5 6820.34 2242.97 6821.69 2244.44 6822.36 2246.57 6822.36 2249.35L6822.36 2249.92C6822.36 2250.11 6822.35 2250.31 6822.32 2250.53 6824.65 2247.23 6826.96 2244.78 6829.27 2243.17 6831.58 2241.57 6833.98 2240.76 6836.47 2240.76 6838.95 2240.76 6840.87 2241.48 6842.22 2242.91 6843.57 2244.34 6844.25 2246.36 6844.25 2248.95 6844.25 2250.65 6843.86 2253.07 6843.07 2256.2L6840.44 2266.82C6839.71 2269.77 6839.34 2271.85 6839.34 2273.06 6839.34 2274.14 6839.52 2274.93 6839.87 2275.41 6840.22 2275.9 6840.78 2276.14 6841.53 2276.14 6842.34 2276.14 6843.21 2275.81 6844.13 2275.15 6845.05 2274.49 6846.34 2273.23 6848.02 2271.36L6850.33 2273.63C6848 2276.09 6845.98 2277.9 6844.25 2279.06 6842.52 2280.22 6840.55 2280.8 6838.33 2280.8 6836.58 2280.8 6835.17 2280.18 6834.12 2278.92 6833.06 2277.66 6832.54 2276.06 6832.54 2274.12 6832.54 2272.36 6832.98 2269.78 6833.87 2266.38L6835.66 2259.36C6836.31 2256.83 6836.73 2254.95 6836.93 2253.73 6837.14 2252.52 6837.24 2251.53 6837.24 2250.77 6837.24 2248.91 6836.93 2247.56 6836.31 2246.74 6835.68 2245.92 6834.67 2245.5 6833.27 2245.5 6832.13 2245.5 6830.92 2245.93 6829.62 2246.78 6828.32 2247.63 6826.96 2248.96 6825.52 2250.75 6824.09 2252.55 6822.92 2254.32 6822.02 2256.06 6821.11 2257.8 6820.39 2259.93 6819.85 2262.45L6816.16 2280.16 6809.15 2280.16 6813.81 2259.57C6814.38 2257.05 6814.76 2255.2 6814.97 2254 6815.17 2252.79 6815.27 2251.76 6815.27 2250.89 6815.27 2248.95 6814.93 2247.56 6814.24 2246.74 6813.55 2245.92 6812.48 2245.5 6811.02 2245.5 6809.99 2245.5 6808.82 2245.93 6807.51 2246.78 6806.2 2247.63 6804.8 2249 6803.32 2250.87 6801.83 2252.75 6800.67 2254.56 6799.83 2256.28 6798.99 2258.01 6798.29 2260.12 6797.72 2262.61L6793.87 2280.16 6786.86 2280.16 6792.78 2254.46C6793.37 2251.87 6793.67 2249.87 6793.67 2248.46 6793.67 2247.38 6793.49 2246.6 6793.14 2246.11 6792.79 2245.63 6792.24 2245.38 6791.48 2245.38 6790.64 2245.38 6789.76 2245.73 6788.83 2246.42 6787.9 2247.11 6786.62 2248.35 6785 2250.17L6782.69 2247.9C6785.06 2245.41 6787.11 2243.59 6788.83 2242.44 6790.54 2241.3 6792.43 2240.72 6794.48 2240.72ZM6762.07 2240.72C6763.77 2240.72 6765.38 2240.93 6766.89 2241.33 6768.41 2241.74 6769.93 2242.42 6771.47 2243.4L6775.2 2240.72 6777.79 2241.37 6773.62 2260.26C6773.32 2261.58 6772.65 2264.92 6771.59 2270.27 6770.49 2275.94 6769.59 2279.95 6768.9 2282.3 6768.21 2284.65 6767.35 2286.8 6766.33 2288.73 6765.3 2290.66 6763.97 2292.34 6762.35 2293.77 6760.73 2295.2 6758.77 2296.31 6756.46 2297.1 6754.15 2297.88 6751.41 2298.27 6748.25 2298.27 6738.04 2298.27 6732.93 2295.3 6732.93 2289.36 6732.93 2287.84 6733.39 2286.46 6734.31 2285.22 6735.23 2283.98 6736.7 2282.67 6738.73 2281.29L6741.64 2283.64C6741.13 2284.26 6740.7 2284.88 6740.35 2285.48 6740 2286.09 6739.75 2286.68 6739.6 2287.25 6739.45 2287.82 6739.37 2288.49 6739.37 2289.27 6739.37 2291.3 6740.1 2292.78 6741.56 2293.71 6743.02 2294.64 6745.22 2295.11 6748.17 2295.11 6751.49 2295.11 6754.16 2294.36 6756.17 2292.86 6758.19 2291.36 6759.91 2288.95 6761.34 2285.63 6762.77 2282.3 6764.16 2277.28 6765.51 2270.55L6764.95 2270.43C6762.33 2274.02 6759.9 2276.64 6757.65 2278.29 6755.41 2279.94 6752.99 2280.76 6750.4 2280.76 6747.45 2280.76 6745.16 2279.66 6743.53 2277.44 6741.89 2275.22 6741.08 2272.06 6741.08 2267.96 6741.08 2263.34 6741.98 2258.9 6743.79 2254.64 6745.6 2250.39 6748.11 2247 6751.33 2244.49 6754.55 2241.98 6758.12 2240.72 6762.07 2240.72ZM6911.44 2225.52 6918.61 2225.52 6916.75 2233.39 6909.58 2233.39ZM6721.44 2225.52 6728.61 2225.52 6726.75 2233.39 6719.58 2233.39ZM6690.49 2224.19C6692.98 2224.19 6695.28 2224.36 6697.4 2224.69 6699.52 2225.03 6701.86 2225.61 6704.43 2226.42L6702.16 2236.83 6698.27 2236.83C6698.16 2234.54 6697.81 2232.73 6697.22 2231.42 6696.62 2230.11 6695.77 2229.17 6694.66 2228.6 6693.56 2228.04 6692.08 2227.75 6690.25 2227.75 6688 2227.75 6686.03 2228.21 6684.33 2229.13 6682.63 2230.05 6681.33 2231.3 6680.44 2232.88 6679.55 2234.46 6679.1 2236.22 6679.1 2238.17 6679.1 2240.2 6679.63 2241.97 6680.7 2243.5 6681.77 2245.03 6683.82 2246.83 6686.84 2248.91 6689.49 2250.75 6691.51 2252.39 6692.9 2253.83 6694.29 2255.28 6695.32 2256.81 6695.98 2258.43 6696.64 2260.05 6696.97 2261.93 6696.97 2264.07 6696.97 2267.36 6696.18 2270.29 6694.6 2272.84 6693.02 2275.39 6690.79 2277.37 6687.92 2278.76 6685.04 2280.15 6681.76 2280.84 6678.09 2280.84 6675.6 2280.84 6672.92 2280.64 6670.04 2280.24 6667.17 2279.83 6664.59 2279.32 6662.32 2278.7L6664.75 2267.55 6668.65 2267.55C6668.65 2270.85 6669.41 2273.3 6670.94 2274.91 6672.46 2276.51 6674.82 2277.32 6678.01 2277.32 6681.68 2277.32 6684.57 2276.32 6686.68 2274.32 6688.79 2272.32 6689.84 2269.54 6689.84 2265.97 6689.84 2264.32 6689.55 2262.87 6688.97 2261.61 6688.39 2260.36 6687.51 2259.16 6686.33 2258.01 6685.16 2256.86 6683.46 2255.54 6681.25 2254.06 6679.25 2252.71 6677.59 2251.37 6676.26 2250.06 6674.94 2248.75 6673.89 2247.29 6673.1 2245.67 6672.32 2244.05 6671.93 2242.24 6671.93 2240.24 6671.93 2237.05 6672.7 2234.24 6674.24 2231.81 6675.78 2229.37 6677.95 2227.5 6680.76 2226.17 6683.57 2224.85 6686.81 2224.19 6690.49 2224.19ZM6964.59 2222.2 6966.98 2222.2 6956.89 2267.07C6956.3 2269.71 6956 2271.71 6956 2273.06 6956 2274.14 6956.18 2274.93 6956.53 2275.41 6956.88 2275.9 6957.43 2276.14 6958.19 2276.14 6959 2276.14 6959.86 2275.81 6960.78 2275.15 6961.7 2274.49 6963 2273.23 6964.67 2271.36L6966.98 2273.63C6964.5 2276.25 6962.4 2278.1 6960.7 2279.18 6959 2280.26 6957.16 2280.8 6955.19 2280.8 6953.52 2280.8 6952.18 2280.25 6951.18 2279.14 6950.18 2278.03 6949.68 2276.56 6949.68 2274.72 6949.68 2273.24 6949.99 2271.66 6950.61 2269.98L6950.08 2269.82C6947.49 2273.6 6945.03 2276.37 6942.71 2278.13 6940.38 2279.89 6937.93 2280.76 6935.33 2280.76 6932.36 2280.76 6930.06 2279.64 6928.42 2277.4 6926.79 2275.16 6925.97 2272.01 6925.97 2267.96 6925.97 2263.31 6926.88 2258.84 6928.71 2254.56 6930.53 2250.28 6933.04 2246.9 6936.22 2244.43 6939.41 2241.96 6942.96 2240.72 6946.88 2240.72 6948.53 2240.72 6950.05 2240.89 6951.44 2241.23 6952.83 2241.57 6954.26 2242.15 6955.72 2242.99L6957.82 2233.63C6958.04 2232.74 6958.23 2231.75 6958.39 2230.67 6958.55 2229.59 6958.64 2228.65 6958.64 2227.83 6958.64 2227.02 6958.49 2226.41 6958.19 2225.99 6957.89 2225.57 6957.47 2225.27 6956.91 2225.08 6956.36 2224.89 6955.37 2224.75 6953.93 2224.67L6954.42 2222.57Z" fill-rule="evenodd"/><text fill="#000000" fill-opacity="0" font-family="Arial,Arial_MSFontService,sans-serif" font-size="76.0698" x="6662.32" y="2288.76">𝑆𝑖𝑔𝑚𝑜𝑖𝑑</text><path d="M6576.5 2012.5C6576.5 2000.9 6585.9 1991.5 6597.5 1991.5L7056.5 1991.5C7068.1 1991.5 7077.5 2000.9 7077.5 2012.5L7077.5 2096.5C7077.5 2108.1 7068.1 2117.5 7056.5 2117.5L6597.5 2117.5C6585.9 2117.5 6576.5 2108.1 6576.5 2096.5Z" stroke="#548235" stroke-width="4.58333" stroke-miterlimit="8" fill="none" fill-rule="evenodd"/><path d="M6625.33 2026.07 6661.88 2026.07 6659.09 2038.51 6655.19 2038.51C6655.09 2036.43 6654.92 2034.79 6654.69 2033.59 6654.46 2032.39 6654.13 2031.52 6653.72 2030.99 6653.3 2030.47 6652.79 2030.11 6652.2 2029.92 6651.6 2029.73 6650.71 2029.64 6649.52 2029.64L6637.04 2029.64 6632.22 2051.68 6639.79 2051.68C6640.98 2051.68 6641.97 2051.52 6642.75 2051.2 6643.54 2050.87 6644.27 2050.28 6644.94 2049.43 6645.62 2048.58 6646.45 2047.13 6647.45 2045.08L6651.14 2045.08 6647.21 2062.18 6643.64 2062.18C6643.64 2059.45 6643.56 2057.74 6643.38 2057.05 6643.21 2056.36 6642.87 2055.89 6642.37 2055.63 6641.87 2055.38 6640.88 2055.25 6639.39 2055.25L6631.45 2055.25 6628.24 2069.6C6627.68 2072.14 6627.39 2074.24 6627.39 2075.92 6627.39 2076.76 6627.53 2077.41 6627.8 2077.88 6628.07 2078.36 6628.47 2078.7 6629.01 2078.92 6629.55 2079.13 6630.49 2079.3 6631.81 2079.4L6631.36 2081.39 6614.71 2081.39 6615.15 2079.4C6616.18 2079.24 6616.95 2078.98 6617.46 2078.61 6617.98 2078.25 6618.41 2077.74 6618.76 2077.09 6619.11 2076.45 6619.44 2075.65 6619.73 2074.72 6620.03 2073.79 6620.48 2071.99 6621.07 2069.31L6627.96 2038.11C6628.55 2035.4 6628.85 2033.27 6628.85 2031.7 6628.85 2030.38 6628.54 2029.46 6627.92 2028.95 6627.3 2028.43 6626.29 2028.14 6624.88 2028.06ZM6696.89 2025.42C6699.35 2025.42 6701.62 2025.57 6703.72 2025.87 6705.81 2026.16 6708.14 2026.7 6710.71 2027.49L6708.27 2038.47 6704.38 2038.47C6704.17 2035.15 6703.45 2032.75 6702.22 2031.28 6700.99 2029.8 6699.01 2029.07 6696.28 2029.07 6692.55 2029.07 6689.08 2030.93 6685.88 2034.66 6682.68 2038.39 6680.15 2043.31 6678.28 2049.43 6676.42 2055.55 6675.49 2061.23 6675.49 2066.48 6675.49 2070.58 6676.22 2073.61 6677.68 2075.55 6679.14 2077.5 6681.38 2078.47 6684.4 2078.47 6686.43 2078.47 6688.2 2078.17 6689.71 2077.56 6691.23 2076.95 6692.65 2075.93 6693.97 2074.48 6695.29 2073.03 6696.6 2071.01 6697.9 2068.42L6701.79 2068.42 6699.32 2079.93C6694.27 2081.34 6688.97 2082.04 6683.43 2082.04 6678.35 2082.04 6674.49 2080.58 6671.84 2077.66 6669.19 2074.74 6667.87 2070.47 6667.87 2064.85 6667.87 2060.88 6668.58 2056.3 6670 2051.12 6671.42 2045.93 6673.42 2041.38 6676.02 2037.46 6678.61 2033.54 6681.68 2030.55 6685.21 2028.5 6688.75 2026.45 6692.65 2025.42 6696.89 2025.42Z" fill-rule="evenodd"/><text fill="#000000" fill-opacity="0" font-family="Arial,Arial_MSFontService,sans-serif" font-size="56.6167" x="6614.71" y="2074.96">𝐹𝐶</text><path d="M6747.52 2022.83 6748.61 2025.95C6742.29 2028.03 6737.61 2032.09 6734.57 2038.13 6731.53 2044.17 6730.01 2051.75 6730.01 2060.88 6730.01 2070.34 6731.53 2078.13 6734.57 2084.27 6737.61 2090.4 6742.25 2094.51 6748.49 2096.59L6747.52 2099.71C6739.6 2097.63 6733.54 2093.15 6729.32 2086.27 6725.11 2079.4 6723 2071.07 6723 2061.29 6723 2051.53 6725.12 2043.21 6729.34 2036.3 6733.57 2029.4 6739.63 2024.91 6747.52 2022.83Z" fill-rule="evenodd"/><text fill="#000000" fill-opacity="0" font-family="Arial,Arial_MSFontService,sans-serif" font-size="76.8804" x="6723" y="2090.1">(</text><path d="M6778.49 2029.6C6777.3 2029.6 6776.02 2029.64 6774.64 2029.72L6764.14 2077.66C6764.93 2077.74 6766.43 2077.78 6768.64 2077.78 6773.02 2077.78 6776.73 2077.02 6779.79 2075.49 6782.84 2073.97 6785.48 2071.57 6787.69 2068.32 6789.91 2065.06 6791.54 2061.63 6792.59 2058.03 6793.65 2054.42 6794.18 2050.62 6794.18 2046.62 6794.18 2040.97 6792.86 2036.72 6790.22 2033.87 6787.59 2031.02 6783.68 2029.6 6778.49 2029.6ZM6763.01 2026.07 6778.37 2026.07C6782.45 2026.07 6785.76 2026.38 6788.3 2027 6790.84 2027.62 6793.21 2028.74 6795.41 2030.37 6797.61 2031.99 6799.27 2034.14 6800.38 2036.83 6801.48 2039.52 6802.04 2042.7 6802.04 2046.37 6802.04 2050.02 6801.62 2053.51 6800.78 2056.83 6799.94 2060.15 6798.74 2063.21 6797.17 2066.01 6795.61 2068.81 6793.73 2071.24 6791.54 2073.3 6789.35 2075.37 6787.23 2076.96 6785.18 2078.07 6783.12 2079.17 6780.83 2080 6778.29 2080.56 6775.75 2081.11 6772.79 2081.39 6769.41 2081.39L6752.39 2081.39 6752.84 2079.4C6753.86 2079.24 6754.63 2078.98 6755.15 2078.61 6755.66 2078.25 6756.09 2077.74 6756.44 2077.09 6756.8 2076.45 6757.12 2075.65 6757.42 2074.72 6757.71 2073.79 6758.16 2071.99 6758.75 2069.31L6765.64 2038.11C6766.24 2035.4 6766.54 2033.23 6766.54 2031.58 6766.54 2030.31 6766.22 2029.43 6765.58 2028.93 6764.95 2028.43 6763.94 2028.14 6762.56 2028.06Z" fill-rule="evenodd"/><text fill="#000000" fill-opacity="0" font-family="Arial,Arial_MSFontService,sans-serif" font-size="55.3198" x="6752.39" y="2074.47">𝐷</text><path d="M6841.63 2023.39 6847.92 2023.39 6818.65 2098.82 6812.29 2098.82Z" fill-rule="evenodd"/><text fill="#000000" fill-opacity="0" font-family="Arial,Arial_MSFontService,sans-serif" font-size="75.4214" x="6812.29" y="2089.39">/</text><path d="M6876.11 2034.95 6860.26 2060.11 6860.26 2060.68 6876.11 2060.68 6876.11 2050.59C6876.11 2048.05 6876.15 2045.21 6876.23 2042.06 6876.31 2038.91 6876.41 2036.54 6876.52 2034.95ZM6877.29 2025.79 6883.08 2025.79 6883.08 2060.68 6883.93 2060.68C6885.5 2060.68 6886.62 2060.57 6887.3 2060.34 6887.97 2060.11 6888.53 2059.7 6888.98 2059.12 6889.42 2058.54 6889.84 2057.59 6890.21 2056.26L6893.29 2056.26 6892.81 2064.61 6883.08 2064.61 6883.08 2071.26C6883.08 2073.07 6883.14 2074.39 6883.26 2075.23 6883.38 2076.07 6883.59 2076.73 6883.87 2077.22 6884.15 2077.7 6884.57 2078.11 6885.13 2078.43 6885.68 2078.76 6886.58 2079.08 6887.82 2079.4L6887.82 2081.39 6871.37 2081.39 6871.37 2079.4C6873.04 2078.97 6874.17 2078.49 6874.73 2077.96 6875.3 2077.44 6875.67 2076.69 6875.85 2075.72 6876.02 2074.74 6876.11 2073.26 6876.11 2071.26L6876.11 2064.61 6853.58 2064.61 6853.58 2061.57Z" fill-rule="evenodd"/><text fill="#000000" fill-opacity="0" font-family="Arial,Arial_MSFontService,sans-serif" font-size="55.6035" x="6853.58" y="2074.44">4</text><path d="M6901.72 2071.99 6908.81 2071.99C6909.19 2073.88 6909.38 2075.74 6909.38 2077.58 6909.38 2079.47 6909.06 2081.2 6908.41 2082.77 6907.76 2084.33 6906.73 2085.89 6905.31 2087.45 6903.89 2089 6901.94 2090.71 6899.45 2092.57L6897.26 2090.1C6898.64 2088.81 6899.64 2087.64 6900.26 2086.6 6900.88 2085.56 6901.33 2084.38 6901.6 2083.05 6901.87 2081.73 6902 2080.07 6902 2078.07 6902 2076.01 6901.91 2073.99 6901.72 2071.99Z" fill-rule="evenodd"/><text fill="#000000" fill-opacity="0" font-family="Arial,Arial_MSFontService,sans-serif" font-size="20.5879" x="6897.26" y="2090">,</text><path d="M6955.64 2029.6C6954.45 2029.6 6953.16 2029.64 6951.79 2029.72L6941.29 2077.66C6942.07 2077.74 6943.57 2077.78 6945.79 2077.78 6950.17 2077.78 6953.88 2077.02 6956.93 2075.49 6959.99 2073.97 6962.62 2071.57 6964.84 2068.32 6967.05 2065.06 6968.69 2061.63 6969.74 2058.03 6970.79 2054.42 6971.32 2050.62 6971.32 2046.62 6971.32 2040.97 6970 2036.72 6967.37 2033.87 6964.73 2031.02 6960.82 2029.6 6955.64 2029.6ZM6940.16 2026.07 6955.52 2026.07C6959.59 2026.07 6962.9 2026.38 6965.44 2027 6967.98 2027.62 6970.35 2028.74 6972.56 2030.37 6974.76 2031.99 6976.41 2034.14 6977.52 2036.83 6978.63 2039.52 6979.18 2042.7 6979.18 2046.37 6979.18 2050.02 6978.76 2053.51 6977.93 2056.83 6977.09 2060.15 6975.89 2063.21 6974.32 2066.01 6972.75 2068.81 6970.88 2071.24 6968.69 2073.3 6966.5 2075.37 6964.38 2076.96 6962.32 2078.07 6960.27 2079.17 6957.97 2080 6955.43 2080.56 6952.89 2081.11 6949.94 2081.39 6946.56 2081.39L6929.54 2081.39 6929.98 2079.4C6931.01 2079.24 6931.78 2078.98 6932.29 2078.61 6932.81 2078.25 6933.24 2077.74 6933.59 2077.09 6933.94 2076.45 6934.27 2075.65 6934.56 2074.72 6934.86 2073.79 6935.31 2071.99 6935.9 2069.31L6942.79 2038.11C6943.38 2035.4 6943.68 2033.23 6943.68 2031.58 6943.68 2030.31 6943.36 2029.43 6942.73 2028.93 6942.09 2028.43 6941.09 2028.14 6939.71 2028.06Z" fill-rule="evenodd"/><text fill="#000000" fill-opacity="0" font-family="Arial,Arial_MSFontService,sans-serif" font-size="55.3198" x="6929.54" y="2074.47">𝐷</text><path d="M6989.56 2022.83C6997.45 2024.91 7003.51 2029.4 7007.74 2036.3 7011.96 2043.21 7014.08 2051.53 7014.08 2061.29 7014.08 2071.07 7011.97 2079.4 7007.76 2086.27 7003.54 2093.15 6997.48 2097.63 6989.56 2099.71L6988.59 2096.59C6994.83 2094.51 6999.47 2090.4 7002.51 2084.27 7005.55 2078.13 7007.07 2070.34 7007.07 2060.88 7007.07 2051.75 7005.55 2044.17 7002.53 2038.13 6999.5 2032.09 6994.81 2028.03 6988.47 2025.95Z" fill-rule="evenodd"/><text fill="#000000" fill-opacity="0" font-family="Arial,Arial_MSFontService,sans-serif" font-size="76.8804" x="6988.47" y="2090.1">)</text><rect x="6576" y="2398" width="501" height="119" fill="#93B07F"/><path d="M6751.88 2429.39 6754.11 2429.39C6753.95 2431.99 6753.86 2435.58 6753.86 2440.17L6753.86 2474.78C6753.86 2476.35 6753.95 2477.53 6754.13 2478.33 6754.3 2479.13 6754.61 2479.78 6755.06 2480.28 6755.51 2480.78 6756.15 2481.17 6756.98 2481.45 6757.82 2481.74 6758.88 2481.95 6760.15 2482.1 6761.42 2482.25 6763.09 2482.35 6765.17 2482.4L6765.17 2485.36 6735.22 2485.36 6735.22 2482.4C6738.22 2482.27 6740.36 2482.09 6741.65 2481.86 6742.93 2481.63 6743.91 2481.28 6744.58 2480.82 6745.26 2480.36 6745.75 2479.72 6746.06 2478.88 6746.37 2478.04 6746.53 2476.68 6746.53 2474.78L6746.53 2441.92C6746.53 2440.84 6746.34 2440.05 6745.96 2439.55 6745.58 2439.05 6745.03 2438.8 6744.3 2438.8 6743.44 2438.8 6742.21 2439.24 6740.61 2440.13 6739.02 2441.03 6737.05 2442.25 6734.69 2443.82L6732.91 2440.7Z" fill-rule="evenodd"/><text fill="#000000" fill-opacity="0" font-family="Arial,Arial_MSFontService,sans-serif" font-size="55.9683" x="6732.91" y="2478.37">1</text><path d="M6807.25 2446.33 6812.6 2446.33 6811.43 2459.02 6821.84 2451.68 6824.48 2456.22 6812.92 2461.61 6824.48 2467.04 6821.84 2471.54 6811.43 2464.21 6812.6 2476.89 6807.25 2476.89 6808.47 2464.21 6798.01 2471.54 6795.34 2467.04 6806.93 2461.61 6795.34 2456.22 6798.01 2451.68 6808.47 2459.02Z" fill-rule="evenodd"/><text fill="#000000" fill-opacity="0" font-family="Arial,Arial_MSFontService,sans-serif" font-size="30.5576" x="6795.34" y="2473.07">∗</text><path d="M6876.71 2433.57C6875.52 2433.57 6874.24 2433.61 6872.86 2433.69L6862.37 2481.63C6863.15 2481.72 6864.65 2481.76 6866.86 2481.76 6871.24 2481.76 6874.96 2480.99 6878.01 2479.47 6881.06 2477.94 6883.7 2475.55 6885.91 2472.29 6888.13 2469.04 6889.76 2465.61 6890.82 2462 6891.87 2458.39 6892.4 2454.59 6892.4 2450.59 6892.4 2444.94 6891.08 2440.69 6888.44 2437.84 6885.81 2434.99 6881.9 2433.57 6876.71 2433.57ZM6861.23 2430.04 6876.59 2430.04C6880.67 2430.04 6883.98 2430.35 6886.52 2430.97 6889.06 2431.6 6891.43 2432.72 6893.63 2434.34 6895.83 2435.96 6897.49 2438.11 6898.6 2440.8 6899.7 2443.49 6900.26 2446.67 6900.26 2450.35 6900.26 2453.99 6899.84 2457.48 6899 2460.8 6898.16 2464.13 6896.96 2467.19 6895.4 2469.98 6893.83 2472.78 6891.95 2475.21 6889.76 2477.28 6887.57 2479.34 6885.45 2480.93 6883.4 2482.04 6881.35 2483.15 6879.05 2483.98 6876.51 2484.53 6873.97 2485.09 6871.01 2485.36 6867.63 2485.36L6850.61 2485.36 6851.06 2483.38C6852.08 2483.21 6852.85 2482.95 6853.37 2482.59 6853.88 2482.22 6854.31 2481.72 6854.67 2481.07 6855.02 2480.42 6855.34 2479.63 6855.64 2478.7 6855.94 2477.76 6856.38 2475.96 6856.98 2473.29L6863.86 2442.08C6864.46 2439.38 6864.76 2437.2 6864.76 2435.55 6864.76 2434.28 6864.44 2433.4 6863.8 2432.9 6863.17 2432.4 6862.16 2432.11 6860.78 2432.03Z" fill-rule="evenodd"/><text fill="#000000" fill-opacity="0" font-family="Arial,Arial_MSFontService,sans-serif" font-size="55.3198" x="6850.61" y="2478.45">𝐷</text><rect x="6137" y="2988" width="501" height="119" fill="#658E49"/><path d="M6312.74 3019.11 6314.97 3019.11C6314.81 3021.71 6314.73 3025.3 6314.73 3029.89L6314.73 3064.5C6314.73 3066.07 6314.82 3067.25 6314.99 3068.05 6315.17 3068.85 6315.48 3069.49 6315.92 3069.99 6316.37 3070.49 6317.01 3070.89 6317.85 3071.17 6318.69 3071.45 6319.74 3071.67 6321.01 3071.82 6322.28 3071.97 6323.95 3072.07 6326.04 3072.12L6326.04 3075.08 6296.09 3075.08 6296.09 3072.12C6299.08 3071.99 6301.23 3071.8 6302.51 3071.57 6303.79 3071.34 6304.77 3071 6305.45 3070.54 6306.12 3070.08 6306.62 3069.43 6306.93 3068.6 6307.24 3067.76 6307.39 3066.39 6307.39 3064.5L6307.39 3031.63C6307.39 3030.55 6307.2 3029.76 6306.83 3029.26 6306.45 3028.76 6305.89 3028.51 6305.16 3028.51 6304.3 3028.51 6303.07 3028.96 6301.48 3029.85 6299.88 3030.74 6297.91 3031.97 6295.56 3033.54L6293.78 3030.42Z" fill-rule="evenodd"/><text fill="#000000" fill-opacity="0" font-family="Arial,Arial_MSFontService,sans-serif" font-size="55.9683" x="6293.78" y="3068.08">1</text><path d="M6368.11 3036.05 6373.46 3036.05 6372.29 3048.74 6382.7 3041.4 6385.34 3045.94 6373.79 3051.33 6385.34 3056.76 6382.7 3061.26 6372.29 3053.92 6373.46 3066.61 6368.11 3066.61 6369.33 3053.92 6358.87 3061.26 6356.2 3056.76 6367.79 3051.33 6356.2 3045.94 6358.87 3041.4 6369.33 3048.74Z" fill-rule="evenodd"/><text fill="#000000" fill-opacity="0" font-family="Arial,Arial_MSFontService,sans-serif" font-size="30.5576" x="6356.2" y="3062.79">∗</text><path d="M6437.58 3023.29C6436.39 3023.29 6435.1 3023.33 6433.73 3023.41L6423.23 3071.35C6424.01 3071.43 6425.51 3071.47 6427.73 3071.47 6432.1 3071.47 6435.82 3070.71 6438.87 3069.18 6441.93 3067.66 6444.56 3065.27 6446.77 3062.01 6448.99 3058.75 6450.62 3055.32 6451.68 3051.72 6452.73 3048.11 6453.26 3044.31 6453.26 3040.31 6453.26 3034.66 6451.94 3030.41 6449.31 3027.56 6446.67 3024.71 6442.76 3023.29 6437.58 3023.29ZM6422.09 3019.76 6437.45 3019.76C6441.53 3019.76 6444.84 3020.07 6447.38 3020.69 6449.92 3021.31 6452.29 3022.44 6454.5 3024.06 6456.7 3025.68 6458.35 3027.83 6459.46 3030.52 6460.57 3033.21 6461.12 3036.39 6461.12 3040.06 6461.12 3043.71 6460.7 3047.2 6459.87 3050.52 6459.03 3053.84 6457.83 3056.9 6456.26 3059.7 6454.69 3062.5 6452.81 3064.93 6450.62 3066.99 6448.44 3069.06 6446.32 3070.65 6444.26 3071.76 6442.21 3072.86 6439.91 3073.7 6437.37 3074.25 6434.83 3074.8 6431.87 3075.08 6428.5 3075.08L6411.48 3075.08 6411.92 3073.09C6412.95 3072.93 6413.72 3072.67 6414.23 3072.3 6414.74 3071.94 6415.18 3071.43 6415.53 3070.78 6415.88 3070.14 6416.2 3069.35 6416.5 3068.41 6416.8 3067.48 6417.24 3065.68 6417.84 3063L6424.73 3031.8C6425.32 3029.09 6425.62 3026.92 6425.62 3025.27 6425.62 3024 6425.3 3023.12 6424.67 3022.62 6424.03 3022.12 6423.03 3021.83 6421.65 3021.75Z" fill-rule="evenodd"/><text fill="#000000" fill-opacity="0" font-family="Arial,Arial_MSFontService,sans-serif" font-size="55.3198" x="6411.48" y="3068.17">𝐷</text><path d="M6638 1648.85 6827.73 1648.85 6827.73 1769.56 6825.44 1769.56 6825.44 1650 6826.58 1651.15 6638 1651.15ZM6840.33 1764.97 6826.58 1792.47 6812.83 1764.97Z"/><path d="M1.14583-5.64153e-06 1.14608 50.3831-1.14559 50.3831-1.14583 5.64153e-06ZM13.7502 45.7997 0.000360892 73.2998-13.7498 45.7998Z" transform="matrix(-1 0 0 1 6826 1918)"/><path d="M6827.15 2117 6827.15 2167.38 6824.85 2167.38 6824.85 2117ZM6839.75 2162.8 6826 2190.3 6812.25 2162.8Z"/><path d="M1.14583-4.98878e-06 1.14609 59.9738-1.14557 59.9738-1.14583 4.98878e-06ZM13.7502 55.3904 0.000360892 82.8905-13.7498 55.3905Z" transform="matrix(-1 0 0 1 6826 2315)"/><path d="M6341.54 2531.54 6433.46 2623.46M6433.46 2531.54 6341.54 2623.46" stroke="#000000" stroke-width="4.58333" stroke-miterlimit="8" fill="none" fill-rule="evenodd"/><path d="M6322.5 2577.5C6322.5 2541.6 6351.6 2512.5 6387.5 2512.5 6423.4 2512.5 6452.5 2541.6 6452.5 2577.5 6452.5 2613.4 6423.4 2642.5 6387.5 2642.5 6351.6 2642.5 6322.5 2613.4 6322.5 2577.5Z" stroke="#000000" stroke-width="4.58333" stroke-miterlimit="8" fill="none" fill-rule="evenodd"/><path d="M6827.32 2517 6827.32 2577.51 6474.92 2577.51 6474.92 2575.22 6826.18 2575.22 6825.03 2576.37 6825.03 2517ZM6479.5 2590.12 6452 2576.37 6479.5 2562.62Z"/><path d="M6388.15 1709 6388.15 2488.44 6385.85 2488.44 6385.85 1709ZM6400.75 2483.85 6387 2511.35 6373.25 2483.85Z"/><path d="M6322.5 2804.5C6322.5 2768.6 6351.6 2739.5 6387.5 2739.5 6423.4 2739.5 6452.5 2768.6 6452.5 2804.5 6452.5 2840.4 6423.4 2869.5 6387.5 2869.5 6351.6 2869.5 6322.5 2840.4 6322.5 2804.5Z" fill="#FFFFFF" fill-rule="evenodd"/><path d="M6387.5 2739.5 6387.5 2869.5M6322.5 2804.5 6452.5 2804.5" stroke="#000000" stroke-width="4.58333" stroke-miterlimit="8" fill="none" fill-rule="evenodd"/><path d="M6322.5 2804.5C6322.5 2768.6 6351.6 2739.5 6387.5 2739.5 6423.4 2739.5 6452.5 2768.6 6452.5 2804.5 6452.5 2840.4 6423.4 2869.5 6387.5 2869.5 6351.6 2869.5 6322.5 2840.4 6322.5 2804.5Z" stroke="#000000" stroke-width="4.58333" stroke-miterlimit="8" fill="none" fill-rule="evenodd"/><path d="M6388.15 2642 6388.15 2716.73 6385.85 2716.73 6385.85 2642ZM6400.75 2712.15 6387 2739.65 6373.25 2712.15Z"/><path d="M6388.15 2869 6388.15 2964.74 6385.85 2964.74 6385.85 2869ZM6400.75 2960.15 6387 2987.65 6373.25 2960.15Z"/><path d="M6137 1651.15 6054.5 1651.15 6055.65 1650 6055.65 2804.47 6054.5 2803.32 6299.68 2803.32 6299.68 2805.61 6053.35 2805.61 6053.35 1648.85 6137 1648.85ZM6295.1 2790.72 6322.6 2804.47 6295.1 2818.22Z"/><path d="M610.133 2004.87 628.492 2023.19 646.851 2004.87 650.661 2008.64 632.504 2027.12 650.701 2045.52 646.648 2049.57 628.492 2031.05 609.769 2049.41 606 2045.6 624.521 2027.12 606.081 2008.92Z" fill-rule="evenodd"/><text fill="#000000" fill-opacity="0" font-family="Arial,Arial_MSFontService,sans-serif" font-size="44.7017" x="606" y="2043.99">×</text><path d="M678.723 2012.04 689.341 2012.04 691.773 2044.02C695.582 2037.81 698.332 2033.08 700.02 2029.84 701.709 2026.59 702.958 2023.79 703.769 2021.43 704.58 2019.06 705.201 2016.6 705.633 2014.03L706.079 2012.04 711.915 2012.04 714.873 2044.06C719.088 2038.06 722.297 2032.83 724.499 2028.36 726.701 2023.89 727.802 2020.24 727.802 2017.44 727.802 2016.17 727.531 2015.3 726.991 2014.84 726.451 2014.38 725.532 2014.11 724.235 2014.03L724.641 2012.04 735.097 2012.04 736.191 2014.07C735.245 2016.48 734.489 2018.33 733.921 2019.62 733.354 2020.92 732.611 2022.48 731.692 2024.3 730.774 2026.13 729.801 2027.95 728.774 2029.76 727.748 2031.57 726.539 2033.56 725.147 2035.73 723.756 2037.91 722.195 2040.27 720.466 2042.83 718.737 2045.38 716.697 2048.25 714.347 2051.44L709.524 2051.44 707.862 2034.5C707.727 2033.17 707.585 2031.44 707.437 2029.31 707.288 2027.18 707.187 2025.53 707.133 2024.37L706.687 2024.32C705.228 2027.92 703.242 2031.92 700.729 2036.32 698.217 2040.72 695.11 2045.76 691.408 2051.44L685.977 2051.44 682.897 2020.92C682.735 2019.35 682.533 2018.08 682.289 2017.11 682.046 2016.14 681.641 2015.41 681.074 2014.92 680.506 2014.44 679.574 2014.14 678.277 2014.03Z" fill-rule="evenodd"/><text fill="#000000" fill-opacity="0" font-family="Arial,Arial_MSFontService,sans-serif" font-size="39.3926" x="678.277" y="2046.51">𝑤</text><path d="M752.23 2029.27 754.047 2029.27C754.008 2030.36 753.978 2031.34 753.958 2032.2 753.938 2033.07 753.923 2033.91 753.913 2034.72 753.903 2035.53 753.898 2036.34 753.898 2037.13L753.898 2059.77C753.898 2060.39 753.918 2060.92 753.958 2061.36 753.998 2061.81 754.062 2062.19 754.151 2062.49 754.241 2062.8 754.36 2063.07 754.509 2063.28 754.658 2063.5 754.832 2063.69 755.03 2063.85 755.268 2064.09 755.586 2064.27 755.983 2064.4 756.38 2064.53 756.887 2064.64 757.502 2064.73 758.118 2064.82 758.858 2064.89 759.721 2064.94 760.585 2064.99 761.623 2065.02 762.834 2065.04L762.834 2067.63 739.214 2067.63 739.214 2065.04C740.386 2065 741.379 2064.96 742.193 2064.91 743.007 2064.86 743.702 2064.79 744.278 2064.7 744.854 2064.61 745.315 2064.51 745.663 2064.4 746.01 2064.29 746.313 2064.16 746.571 2064 746.849 2063.82 747.087 2063.63 747.286 2063.42 747.485 2063.21 747.643 2062.95 747.763 2062.63 747.882 2062.31 747.976 2061.92 748.046 2061.47 748.115 2061.01 748.15 2060.44 748.15 2059.77L748.15 2038.41C748.15 2037.64 748.001 2037.09 747.703 2036.78 747.405 2036.46 746.978 2036.3 746.422 2036.3 745.807 2036.3 744.893 2036.62 743.682 2037.25 742.471 2037.89 740.902 2038.83 738.976 2040.08 738.718 2039.62 738.48 2039.17 738.261 2038.71 738.043 2038.25 737.814 2037.79 737.576 2037.31 740.038 2035.96 742.476 2034.62 744.888 2033.28 747.301 2031.94 749.748 2030.6 752.23 2029.27Z" fill-rule="evenodd"/><text fill="#000000" fill-opacity="0" font-family="Arial,Arial_MSFontService,sans-serif" font-size="38.3633" x="737.576" y="2062.84">1</text><path d="M1716.93 2004.87 1735.29 2023.19 1753.65 2004.87 1757.45 2008.64 1739.3 2027.12 1757.5 2045.52 1753.44 2049.57 1735.29 2031.05 1716.56 2049.41 1712.79 2045.6 1731.31 2027.12 1712.87 2008.92Z" fill-rule="evenodd"/><text fill="#000000" fill-opacity="0" font-family="Arial,Arial_MSFontService,sans-serif" font-size="44.7017" x="1712.79" y="2043.99">×</text><path d="M1785.52 2012.04 1796.14 2012.04 1798.57 2044.02C1802.38 2037.81 1805.13 2033.08 1806.81 2029.84 1808.5 2026.59 1809.75 2023.79 1810.56 2021.43 1811.37 2019.06 1812 2016.6 1812.43 2014.03L1812.87 2012.04 1818.71 2012.04 1821.67 2044.06C1825.88 2038.06 1829.09 2032.83 1831.29 2028.36 1833.49 2023.89 1834.6 2020.24 1834.6 2017.44 1834.6 2016.17 1834.33 2015.3 1833.79 2014.84 1833.24 2014.38 1832.33 2014.11 1831.03 2014.03L1831.43 2012.04 1841.89 2012.04 1842.98 2014.07C1842.04 2016.48 1841.28 2018.33 1840.72 2019.62 1840.15 2020.92 1839.41 2022.48 1838.49 2024.3 1837.57 2026.13 1836.6 2027.95 1835.57 2029.76 1834.54 2031.57 1833.33 2033.56 1831.94 2035.73 1830.55 2037.91 1828.99 2040.27 1827.26 2042.83 1825.53 2045.38 1823.49 2048.25 1821.14 2051.44L1816.32 2051.44 1814.66 2034.5C1814.52 2033.17 1814.38 2031.44 1814.23 2029.31 1814.08 2027.18 1813.98 2025.53 1813.93 2024.37L1813.48 2024.32C1812.02 2027.92 1810.04 2031.92 1807.52 2036.32 1805.01 2040.72 1801.9 2045.76 1798.2 2051.44L1792.77 2051.44 1789.69 2020.92C1789.53 2019.35 1789.33 2018.08 1789.08 2017.11 1788.84 2016.14 1788.44 2015.41 1787.87 2014.92 1787.3 2014.44 1786.37 2014.14 1785.07 2014.03Z" fill-rule="evenodd"/><text fill="#000000" fill-opacity="0" font-family="Arial,Arial_MSFontService,sans-serif" font-size="39.3926" x="1785.07" y="2046.51">𝑤</text><path d="M1858.54 2029.06C1860.13 2029.06 1861.62 2029.23 1863 2029.57 1864.38 2029.9 1865.57 2030.42 1866.59 2031.1 1867.6 2031.79 1868.39 2032.64 1868.95 2033.66 1869.52 2034.69 1869.8 2035.87 1869.8 2037.22 1869.8 2038.49 1869.62 2039.61 1869.27 2040.59 1868.91 2041.56 1868.36 2042.44 1867.61 2043.24 1866.87 2044.03 1865.96 2044.75 1864.87 2045.4 1863.79 2046.04 1862.54 2046.66 1861.14 2047.26L1861.14 2047.62C1862.47 2047.86 1863.71 2048.24 1864.86 2048.76 1866.01 2049.29 1867.02 2049.96 1867.88 2050.76 1868.75 2051.56 1869.43 2052.49 1869.92 2053.54 1870.42 2054.6 1870.67 2055.76 1870.67 2057.03 1870.67 2058.62 1870.37 2060.09 1869.77 2061.45 1869.18 2062.81 1868.28 2063.99 1867.09 2064.98 1865.9 2065.97 1864.43 2066.75 1862.68 2067.31 1860.94 2067.86 1858.89 2068.14 1856.55 2068.14 1854.7 2068.14 1852.82 2067.96 1850.92 2067.59 1849.01 2067.22 1847.21 2066.74 1845.5 2066.14L1845.5 2059.71 1849.34 2059.71C1849.66 2060.7 1850.04 2061.55 1850.47 2062.26 1850.91 2062.96 1851.42 2063.54 1852.01 2063.98 1852.59 2064.43 1853.27 2064.75 1854.03 2064.95 1854.8 2065.15 1855.66 2065.25 1856.64 2065.25 1859.2 2065.25 1861.14 2064.64 1862.46 2063.42 1863.78 2062.2 1864.44 2060.35 1864.44 2057.86 1864.44 2055.22 1863.57 2053.22 1861.83 2051.86 1860.1 2050.5 1857.52 2049.82 1854.11 2049.82L1851.48 2049.82 1851.48 2046.96C1853.57 2046.86 1855.37 2046.57 1856.89 2046.08 1858.41 2045.6 1859.68 2044.97 1860.69 2044.19 1861.7 2043.42 1862.46 2042.51 1862.95 2041.48 1863.45 2040.45 1863.7 2039.35 1863.7 2038.18 1863.7 2036.27 1863.13 2034.76 1862 2033.66 1860.87 2032.56 1859.23 2032.01 1857.08 2032.01 1855.28 2032.01 1853.76 2032.51 1852.54 2033.5 1851.32 2034.49 1850.38 2035.97 1849.73 2037.94L1845.94 2037.94 1845.94 2032.07C1848.29 2031.08 1850.5 2030.33 1852.57 2029.82 1854.65 2029.31 1856.64 2029.06 1858.54 2029.06Z" fill-rule="evenodd"/><text fill="#000000" fill-opacity="0" font-family="Arial,Arial_MSFontService,sans-serif" font-size="39.0781" x="1845.5" y="2063.25">3</text><path d="M1163.05 2004.87 1181.41 2023.19 1199.77 2004.87 1203.58 2008.64 1185.42 2027.12 1203.62 2045.52 1199.56 2049.57 1181.41 2031.05 1162.68 2049.41 1158.92 2045.6 1177.44 2027.12 1159 2008.92Z" fill-rule="evenodd"/><text fill="#000000" fill-opacity="0" font-family="Arial,Arial_MSFontService,sans-serif" font-size="44.7017" x="1158.92" y="2043.99">×</text><path d="M1231.64 2012.04 1242.26 2012.04 1244.69 2044.02C1248.5 2037.81 1251.25 2033.08 1252.94 2029.84 1254.62 2026.59 1255.87 2023.79 1256.68 2021.43 1257.5 2019.06 1258.12 2016.6 1258.55 2014.03L1258.99 2012.04 1264.83 2012.04 1267.79 2044.06C1272 2038.06 1275.21 2032.83 1277.41 2028.36 1279.62 2023.89 1280.72 2020.24 1280.72 2017.44 1280.72 2016.17 1280.45 2015.3 1279.91 2014.84 1279.37 2014.38 1278.45 2014.11 1277.15 2014.03L1277.56 2012.04 1288.01 2012.04 1289.11 2014.07C1288.16 2016.48 1287.4 2018.33 1286.84 2019.62 1286.27 2020.92 1285.53 2022.48 1284.61 2024.3 1283.69 2026.13 1282.72 2027.95 1281.69 2029.76 1280.66 2031.57 1279.45 2033.56 1278.06 2035.73 1276.67 2037.91 1275.11 2040.27 1273.38 2042.83 1271.65 2045.38 1269.61 2048.25 1267.26 2051.44L1262.44 2051.44 1260.78 2034.5C1260.64 2033.17 1260.5 2031.44 1260.35 2029.31 1260.2 2027.18 1260.1 2025.53 1260.05 2024.37L1259.6 2024.32C1258.14 2027.92 1256.16 2031.92 1253.65 2036.32 1251.13 2040.72 1248.03 2045.76 1244.32 2051.44L1238.89 2051.44 1235.81 2020.92C1235.65 2019.35 1235.45 2018.08 1235.21 2017.11 1234.96 2016.14 1234.56 2015.41 1233.99 2014.92 1233.42 2014.44 1232.49 2014.14 1231.19 2014.03Z" fill-rule="evenodd"/><text fill="#000000" fill-opacity="0" font-family="Arial,Arial_MSFontService,sans-serif" font-size="39.3926" x="1231.19" y="2046.51">𝑤</text><path d="M1304.73 2029.06C1306.79 2029.06 1308.55 2029.29 1310.01 2029.76 1311.47 2030.23 1312.66 2030.86 1313.57 2031.65 1314.48 2032.45 1315.15 2033.4 1315.55 2034.51 1315.96 2035.62 1316.16 2036.83 1316.16 2038.12 1316.16 2038.89 1316.11 2039.61 1316 2040.28 1315.89 2040.94 1315.7 2041.6 1315.43 2042.24 1315.16 2042.89 1314.81 2043.54 1314.38 2044.19 1313.94 2044.85 1313.39 2045.54 1312.74 2046.28 1312.24 2046.91 1311.6 2047.65 1310.8 2048.48 1310.01 2049.31 1309.14 2050.21 1308.2 2051.16 1307.25 2052.11 1306.26 2053.11 1305.23 2054.14 1304.2 2055.17 1303.2 2056.2 1302.22 2057.21 1301.25 2058.22 1300.36 2059.2 1299.54 2060.16 1298.73 2061.11 1298.06 2061.98 1297.55 2062.78L1308.57 2062.78C1309.5 2062.78 1310.25 2062.74 1310.8 2062.67 1311.36 2062.6 1311.82 2062.45 1312.19 2062.21 1312.55 2061.97 1312.87 2061.61 1313.12 2061.12 1313.38 2060.64 1313.68 2059.97 1314.02 2059.11L1316.79 2059.11C1316.69 2060.52 1316.59 2061.94 1316.51 2063.37 1316.42 2064.8 1316.32 2066.22 1316.22 2067.63L1290.99 2067.63 1290.99 2066.08C1291.47 2065.01 1292.03 2063.95 1292.66 2062.91 1293.3 2061.87 1294.01 2060.81 1294.81 2059.74 1295.6 2058.67 1296.5 2057.56 1297.52 2056.42 1298.53 2055.28 1299.65 2054.09 1300.88 2052.86 1302.75 2050.99 1304.27 2049.4 1305.44 2048.08 1306.61 2046.76 1307.53 2045.58 1308.21 2044.55 1308.89 2043.52 1309.35 2042.56 1309.6 2041.69 1309.84 2040.82 1309.97 2039.88 1309.97 2038.89 1309.97 2037.88 1309.82 2036.94 1309.54 2036.09 1309.25 2035.24 1308.84 2034.51 1308.3 2033.92 1307.76 2033.32 1307.08 2032.85 1306.26 2032.52 1305.44 2032.18 1304.49 2032.01 1303.41 2032.01 1301.57 2032.01 1300.02 2032.51 1298.77 2033.51 1297.52 2034.52 1296.54 2035.97 1295.85 2037.88L1291.95 2037.88 1291.95 2032.07C1294.49 2031.02 1296.83 2030.25 1298.96 2029.78 1301.1 2029.3 1303.02 2029.06 1304.73 2029.06Z" fill-rule="evenodd"/><text fill="#000000" fill-opacity="0" font-family="Arial,Arial_MSFontService,sans-serif" font-size="38.5718" x="1290.99" y="2062.81">2</text><text font-family="Times New Roman,Times New Roman_MSFontService,sans-serif" font-weight="400" font-size="83" transform="matrix(1 0 0 1 757.234 2685)">Sum</text><text font-family="Times New Roman,Times New Roman_MSFontService,sans-serif" font-weight="400" font-size="83" transform="matrix(1 0 0 1 2364.74 2468)">Concatenate</text><path d="M4658.5 1905.33C4658.5 1893.83 4667.83 1884.5 4679.33 1884.5L5256.67 1884.5C5268.17 1884.5 5277.5 1893.83 5277.5 1905.33L5277.5 1988.67C5277.5 2000.17 5268.17 2009.5 5256.67 2009.5L4679.33 2009.5C4667.83 2009.5 4658.5 2000.17 4658.5 1988.67Z" stroke="#548235" stroke-width="4.58333" stroke-miterlimit="8" fill="none" fill-rule="evenodd"/><text font-family="Times New Roman,Times New Roman_MSFontService,sans-serif" font-weight="400" font-size="83" transform="matrix(1 0 0 1 4707.28 1977)">Element weight</text><path d="M4658.5 1906.33C4658.5 1894.83 4667.83 1885.5 4679.33 1885.5L5256.67 1885.5C5268.17 1885.5 5277.5 1894.83 5277.5 1906.33L5277.5 1989.67C5277.5 2001.17 5268.17 2010.5 5256.67 2010.5L4679.33 2010.5C4667.83 2010.5 4658.5 2001.17 4658.5 1989.67Z" stroke="#548235" stroke-width="4.58333" stroke-miterlimit="8" fill="none" fill-rule="evenodd"/><text font-family="Times New Roman,Times New Roman_MSFontService,sans-serif" font-weight="400" font-size="83" transform="matrix(1 0 0 1 4707.28 1978)">Element weight</text><path d="M5339.5 1905.33C5339.5 1893.83 5348.83 1884.5 5360.33 1884.5L5937.67 1884.5C5949.17 1884.5 5958.5 1893.83 5958.5 1905.33L5958.5 1988.67C5958.5 2000.17 5949.17 2009.5 5937.67 2009.5L5360.33 2009.5C5348.83 2009.5 5339.5 2000.17 5339.5 1988.67Z" stroke="#548235" stroke-width="4.58333" stroke-miterlimit="8" fill="none" fill-rule="evenodd"/><text font-family="Times New Roman,Times New Roman_MSFontService,sans-serif" font-weight="400" font-size="83" transform="matrix(1 0 0 1 5388.28 1977)">Element weight</text><path d="M6078.5 1471.5C6078.5 1459.9 6087.9 1450.5 6099.5 1450.5L6675.5 1450.5C6687.1 1450.5 6696.5 1459.9 6696.5 1471.5L6696.5 1555.5C6696.5 1567.1 6687.1 1576.5 6675.5 1576.5L6099.5 1576.5C6087.9 1576.5 6078.5 1567.1 6078.5 1555.5Z" stroke="#548235" stroke-width="4.58333" stroke-miterlimit="8" fill="none" fill-rule="evenodd"/><text font-family="Times New Roman,Times New Roman_MSFontService,sans-serif" font-weight="400" font-size="83" transform="matrix(1 0 0 1 6127.06 1543)">Element weight</text><text font-family="Times New Roman,Times New Roman_MSFontService,sans-serif" font-weight="400" font-size="83" transform="matrix(1 0 0 1 4361.98 2673)">Concatenate</text><text font-family="Arial,Arial_MSFontService,sans-serif" font-weight="400" font-size="110" transform="matrix(1 0 0 1 1045.63 3270)">(a)</text><text font-family="Arial,Arial_MSFontService,sans-serif" font-weight="400" font-size="110" transform="matrix(1 0 0 1 2941.23 3269)">(b)</text><text font-family="Arial,Arial_MSFontService,sans-serif" font-weight="400" font-size="110" transform="matrix(1 0 0 1 5425.55 3269)">(c)</text><rect x="553" y="1383" width="1045" height="162" fill="#D0CECE"/><text font-family="Calibri,Calibri_MSFontService,sans-serif" font-weight="400" font-size="83" transform="matrix(1 0 0 1 654.615 1492)">Weight multiply and sum</text><rect x="2442" y="1393" width="1045" height="162" fill="#D0CECE"/><text font-family="Calibri,Calibri_MSFontService,sans-serif" font-weight="400" font-size="83" transform="matrix(1 0 0 1 2595.55 1501)">Concatenate and MLP</text><rect x="4445" y="1383" width="1045" height="162" fill="#D0CECE"/><text font-family="Calibri,Calibri_MSFontService,sans-serif" font-weight="400" font-size="83" transform="matrix(1 0 0 1 4581.82 1492)">E(Element</text><text font-family="Calibri,Calibri_MSFontService,sans-serif" font-weight="400" font-size="83" transform="matrix(1 0 0 1 4925.57 1492)">-</text><text font-family="Calibri,Calibri_MSFontService,sans-serif" font-weight="400" font-size="83" transform="matrix(1 0 0 1 4950.77 1492)">weight)MLP</text></g></svg>